<svg width="32" height="32" viewBox="0 0 32 32" fill="none" xmlns="http://www.w3.org/2000/svg">
    <path d="M9.333 4A5.333 5.333 0 0 0 4 9.333v1.334h24V9.333A5.333 5.333 0 0 0 22.667 4H9.333z" fill="#6D4EBF" fill-opacity=".4"/>
    <path fill-rule="evenodd" clip-rule="evenodd" d="M12 4a1.333 1.333 0 0 0-2.667 0v2.667a1.333 1.333 0 0 0 2.667 0V4zm10.667 0A1.333 1.333 0 0 0 20 4v2.667a1.333 1.333 0 0 0 2.667 0V4zM4 22.667v-9.334h24v9.334A5.334 5.334 0 0 1 22.667 28H9.333A5.334 5.334 0 0 1 4 22.667zm8-4.63c0-1.125.985-2.037 2.2-2.037.728 0 1.4.34 1.813.856.423-.508 1.097-.856 1.787-.856 1.215 0 2.2.912 2.2 2.037 0 1.18-.725 2.292-1.925 3.31-.41.348-.85.652-1.287.926a11.037 11.037 0 0 1-.588.347.452.452 0 0 1-.4 0 11.037 11.037 0 0 1-.588-.347 11.034 11.034 0 0 1-1.287-.926c-1.2-1.018-1.925-2.13-1.925-3.31z" fill="#6D4EBF"/>
</svg>
