<svg width="20" height="20" viewBox="0 0 20 20" fill="none" xmlns="http://www.w3.org/2000/svg">
    <path d="M9.998 1.667a6.667 6.667 0 0 0-6.666 6.666c0 2.89 1.873 6.177 4.4 8.907.082.088.148.156.235.234.715.641 1.457.868 2.031.86h.026c.598 0 1.441-.27 2.24-1.068 2.425-2.425 4.4-6 4.4-8.933a6.667 6.667 0 0 0-6.666-6.666zm0 1.666a5 5 0 0 1 5 5c0 2.405-1.79 5.592-3.932 7.735-.452.451-.855.599-1.068.599h-.026c-.19.002-.52-.09-.885-.417a2.55 2.55 0 0 1-.156-.157c-2.268-2.447-3.933-5.399-3.933-7.76a5 5 0 0 1 5-5z" fill="#475569" fill-opacity=".4"/>
    <path fill-rule="evenodd" clip-rule="evenodd" d="M10 7.5a.833.833 0 1 0 0 1.667.833.833 0 0 0 0-1.667zm-2.5.834a2.5 2.5 0 1 1 5 0 2.5 2.5 0 0 1-5 0z" fill="#475569"/>
</svg>
