<svg width="24" height="24" viewBox="0 0 24 24" fill="none" xmlns="http://www.w3.org/2000/svg">
<path d="M19.8571 17.3572H7.71429L4.14286 2.35718H2M4.85714 5.21432H22L19.8571 14.5H7L4.85714 5.21432Z" stroke="#fff" stroke-width="1.5" stroke-linecap="round" stroke-linejoin="round"/>
<path d="M18.4286 21.6429C19.2175 21.6429 19.8571 21.0033 19.8571 20.2143C19.8571 19.4254 19.2175 18.7858 18.4286 18.7858C17.6396 18.7858 17 19.4254 17 20.2143C17 21.0033 17.6396 21.6429 18.4286 21.6429Z" stroke="#fff" stroke-width="1.5" stroke-linecap="round" stroke-linejoin="round"/>
<path d="M9.14284 21.6429C9.93182 21.6429 10.5714 21.0033 10.5714 20.2143C10.5714 19.4254 9.93182 18.7858 9.14284 18.7858C8.35386 18.7858 7.71427 19.4254 7.71427 20.2143C7.71427 21.0033 8.35386 21.6429 9.14284 21.6429Z" stroke="#fff" stroke-width="1.5" stroke-linecap="round" stroke-linejoin="round"/>
</svg>
