<svg width="24" height="24" viewBox="0 0 24 24" fill="none" xmlns="http://www.w3.org/2000/svg">
    <path fill-rule="evenodd" clip-rule="evenodd" d="M7 6v12a2 2 0 0 0 2 2h6a2 2 0 0 0 2-2V6h2v12a4 4 0 0 1-4 4H9a4 4 0 0 1-4-4V6h2z" fill="#000" fill-opacity=".4"/>
    <path fill-rule="evenodd" clip-rule="evenodd" d="M11.998 2c-1.105 0-2 .892-2 1.994h-5c-.552 0-1 .447-1 .997s.448.997 1 .997h14c.552 0 1-.446 1-.997a.999.999 0 0 0-1-.997h-5a1.997 1.997 0 0 0-2-1.994zM10 8.03c.553 0 1 .446 1 .996v7.977c0 .55-.447.997-1 .997-.552 0-1-.446-1-.997V9.026c0-.55.448-.997 1-.997zm5 .996a.999.999 0 0 0-1-.997c-.552 0-1 .447-1 .997v7.977c0 .55.448.997 1 .997.553 0 1-.446 1-.997V9.026z" fill="#000"/>
</svg>
