<svg width="20" height="20" viewBox="0 0 20 20" fill="none" xmlns="http://www.w3.org/2000/svg">
    <path opacity=".989" d="M10 1.667a8.333 8.333 0 1 0 0 16.666 8.333 8.333 0 1 0 0-16.666zm0 1.666a6.667 6.667 0 1 1-.001 13.334 6.667 6.667 0 0 1 0-13.334z" fill="#000" fill-opacity=".4"/>
    <path opacity=".989" d="M10 5.833A.834.834 0 1 0 10 7.5a.834.834 0 0 0 0-1.667zm-.833 2.5a.834.834 0 0 0-.834.833c0 .402.3.702.677.782l-.494 2.395c-.193.967.498 1.823 1.484 1.823h.833a.834.834 0 0 0 0-1.666h-.65l.624-3.177a.821.821 0 0 0-.807-.99h-.833z" fill="#000"/>
</svg>
