<svg width="40" height="40" viewBox="0 0 40 40" fill="none" xmlns="http://www.w3.org/2000/svg">
    <g clip-path="url(#ksxfzubvva)">
        <path d="M35.06 30.63c-3.433 5.132-9.282 8.51-15.92 8.51a19.052 19.052 0 0 1-10.502-3.136c-.087-.057-.003-.372-.09-.43a19.081 19.081 0 0 1-.808-.583c-.067-.051-.305.154-.371.103C2.884 31.59 0 26.132 0 20 0 9.429 8.57.86 19.14.86c8.834 0 16.27 5.984 18.476 14.12a19.051 19.051 0 0 0-3.22 10.63c0 1.737.23 3.42.664 5.02z" fill="#465A61"/>
        <path d="M35.304 19.206c0 8.63-6.995 15.625-15.625 15.625-8.63 0-15.625-6.996-15.625-15.625 0-8.63 6.996-15.625 15.625-15.625 8.63 0 15.625 6.995 15.625 15.625z" fill="#596C76"/>
        <path d="M11.797 33.99a.986.986 0 0 1-.64 1.238l-2.284.727a1.178 1.178 0 0 1-.235.05c-.436-.287-.86-.591-1.27-.911l-4.172-13.11-3.14-9.868a1.172 1.172 0 0 1 .76-1.472l2.258-.719a1.014 1.014 0 0 1 1.273.66L7.69 21.087l4.107 12.902z" fill="#00AAF2"/>
        <path d="m25.25 30.742-14.14 4.5a1.172 1.172 0 0 1-1.472-.76L2.293 11.402a1.172 1.172 0 0 1 .762-1.472l14.14-4.5a1.172 1.172 0 0 1 1.472.761l7.345 23.078a1.172 1.172 0 0 1-.761 1.473z" fill="#00C1FB"/>
        <path d="m16.408 31.533 4.36-23.823a1.172 1.172 0 0 1 1.364-.942l3.08.564c.636.117 1.058.727.941 1.364l-4.36 23.823a1.172 1.172 0 0 1-1.364.941l-3.08-.563a1.172 1.172 0 0 1-.941-1.364z" fill="#FF4343"/>
        <path d="m19.152 32.035 4.36-23.823a1.172 1.172 0 0 1 1.364-.941l14.163 2.592c.636.116 1.058.727.942 1.364L35.62 35.05a1.172 1.172 0 0 1-1.364.941L20.093 33.4a1.172 1.172 0 0 1-.941-1.364z" fill="#FF5757"/>
        <path d="m32.59 33.27-12.718-2.328a1.172 1.172 0 0 1-.942-1.364l3.505-19.146a1.172 1.172 0 0 1 1.363-.942l12.719 2.328c.637.117 1.058.727.942 1.364l-3.505 19.146a1.172 1.172 0 0 1-1.364.942z" fill="#FF4343"/>
        <path d="m30.879 30.52-8.433-1.543a1.172 1.172 0 0 1-.942-1.364l2.642-14.433a1.172 1.172 0 0 1 1.364-.941l8.433 1.543c.637.117 1.058.727.942 1.364L32.242 29.58a1.172 1.172 0 0 1-1.364.942z" fill="#FF5757"/>
        <path d="m17.358 9.032 5.903 18.547a1.172 1.172 0 0 1-.761 1.473l-12.321 3.921a1.172 1.172 0 0 1-1.472-.761L2.804 13.664a1.172 1.172 0 0 1 .76-1.472l12.322-3.921a1.172 1.172 0 0 1 1.472.76z" fill="#00D1FC"/>
        <path d="m15.989 11.821 4.543 14.274a1.172 1.172 0 0 1-.762 1.472l-8.222 2.617a1.172 1.172 0 0 1-1.472-.761L5.533 15.149a1.172 1.172 0 0 1 .761-1.472l8.223-2.617a1.172 1.172 0 0 1 1.472.761z" fill="#00C1FB"/>
        <path d="M14.772 5.804v24.22c0 .646-.524 1.17-1.172 1.17h-3.016a1.172 1.172 0 0 1-1.172-1.17V5.803c0-.647.525-1.172 1.172-1.172H13.6c.648 0 1.172.525 1.172 1.172z" fill="#FFB509"/>
        <path d="M27.772 31.195H13.287a1.172 1.172 0 0 1-1.172-1.172V5.804c0-.647.525-1.172 1.172-1.172h14.485c.647 0 1.172.525 1.172 1.172v24.22c0 .646-.525 1.17-1.172 1.17z" fill="#FFC143"/>
        <path d="M25.643 28.818h-12.93a1.172 1.172 0 0 1-1.172-1.172V8.18c0-.647.525-1.171 1.172-1.171h12.93c.647 0 1.172.524 1.172 1.171v19.465c0 .647-.525 1.172-1.172 1.172z" fill="#FA0"/>
        <path d="M23.548 26.863h-8.74a1.172 1.172 0 0 1-1.173-1.172V10.136c0-.647.525-1.172 1.172-1.172h8.741c.648 0 1.172.525 1.172 1.172v15.555c0 .647-.524 1.172-1.172 1.172z" fill="#FFB509"/>
        <path d="M18.957 13.577a.234.234 0 0 1 .445 0l.856 2.634a.234.234 0 0 0 .223.162h2.77c.227 0 .321.29.137.424l-2.24 1.627a.235.235 0 0 0-.085.262l.855 2.634a.234.234 0 0 1-.36.262l-2.24-1.628a.234.234 0 0 0-.276 0l-2.24 1.628a.234.234 0 0 1-.361-.262l.855-2.634a.234.234 0 0 0-.085-.262l-2.24-1.627a.234.234 0 0 1 .137-.425h2.77a.234.234 0 0 0 .223-.161l.856-2.634z" fill="#fff"/>
        <path d="m33.453 12.315 1.775-1.775a.39.39 0 0 1 .553 0l1.775 1.775a.39.39 0 0 1 0 .552l-1.775 1.775a.39.39 0 0 1-.553 0l-1.775-1.775a.39.39 0 0 1 0-.552zm.427 5.003-1.127-1.127a.39.39 0 0 0-.552 0l-1.127 1.127a.39.39 0 0 0 0 .553l1.127 1.127a.39.39 0 0 0 .552 0l1.127-1.127a.39.39 0 0 0 0-.553z" fill="#FFB509"/>
        <path d="M5.654 22.454 3.88 24.229a.39.39 0 0 1-.553 0l-1.775-1.775a.39.39 0 0 1 0-.553l1.775-1.774a.39.39 0 0 1 .553 0L5.655 21.9a.39.39 0 0 1 0 .553zm-.426-5.003 1.127 1.126a.39.39 0 0 0 .552 0l1.127-1.126a.39.39 0 0 0 0-.553l-1.127-1.127a.39.39 0 0 0-.552 0l-1.127 1.127a.39.39 0 0 0 0 .553z" fill="#64DCFC"/>
    </g>
    <defs>
        <clipPath id="ksxfzubvva">
            <path fill="#fff" d="M0 0h40v40H0z"/>
        </clipPath>
    </defs>
</svg>
