<svg width="165" height="121" viewBox="0 0 165 121" fill="none" xmlns="http://www.w3.org/2000/svg">
    <g clip-path="url(#8of1mmqj6a)">
        <path d="M54.058 65.406c3.11-2.804 6.404-5.288 8.81-8.081 2.647-3.087 5.098-6.4 6.478-9.74 1.624-3.912-1.137-6.872-5.837-7.766-5.03-.97-10.014.662-13.304 4.502-4.234 4.96-5.491 10.163-5.443 15.439.005 1.284.173 2.556.253 3.765-9.162 6.203-13.23 6.058-35.618-1.23-2.935 2.554-1.184 4.23 1.012 5.733 7.36 5.059 22.876 6.21 33.356 2.515 1.064-.38 2.108-.785 3.364-1.253.982.77 1.783 1.465 2.69 2.087 6.52 4.474 15.773 5.241 24.688 1.302 5.138-2.276 9.944-5.3 14.151-8.47 7.239-5.466 12.39-11.898 16.507-18.548 4.962-8.035 9.404-16.19 14.084-24.281.7-1.213 1.478-2.412 2.452-3.976 2.108 2.256 3.635 4.232 5.665 5.881.773.63 3.451 1.026 3.99.65 1.17-.818 1.549-2.21 2.137-3.38.128-.261-.195-.594-.331-.893-2.099-4.727-4.297-9.424-6.268-14.188-1.738-4.208-3.139-4.75-9.414-2.897-7.194 2.131-13.037 5.672-18.144 9.88-1.645 1.364-3.042 2.913-.406 4.44 6.637-1.03 10.592-5.882 17.557-8.181-.716 1.798-1.052 3.03-1.715 4.204-5.633 10.203-10.889 20.492-17.165 30.559-3.398 5.453-8.11 10.724-13.058 15.717-3.041 3.065-7.293 5.865-11.649 8.074-7.294 3.713-13.681 2.936-18.844-1.874l.002.01zm-.09-7.185-1.678-.354c-.354-3.153.459-6.327 2.403-9.476 1.796-2.915 3.977-4.224 5.97-3.506 2.847 1.015 1.794 3.004.579 4.637-2.206 2.968-4.826 5.815-7.287 8.711l.013-.012z" fill="#E2E2E2"/>
    </g>
    <path d="m41.988 117.593-.46.122-.394.088-1.947-7.435c-.35.523-.945 1.03-1.783 1.519-.764.449-1.472.747-2.123.894-.526.118-.983.143-1.371.074-.377-.071-.67-.173-.88-.306-.201-.147-.33-.316-.385-.508l-.104-.463a4.326 4.326 0 0 1 .043-2.045c.178-.701.508-1.37.989-2.007a6.69 6.69 0 0 1 1.696-1.59c.66-.425 1.328-.714 2.003-.866l.24-.054c.331-.075.661-.023.99.155a3.6 3.6 0 0 1 .867.651c.449 1.989.897 3.948 1.344 5.878.447 1.929.958 3.874 1.532 5.835l-.257.058zm-3.932-10.646c-.122-.537-.297-.78-.525-.728a5.3 5.3 0 0 0-2.893 1.715c-.816.965-1.098 2.002-.848 3.111.123.548.497.764 1.12.648l.668-.151a6.32 6.32 0 0 0 1.005-.335c.383-.17.712-.388.988-.655.66-.593.892-1.318.699-2.175l-.215-1.43zm2.953 2.091a7.736 7.736 0 0 0-.221-.743c-.098-.326-.202-.681-.313-1.065a20.62 20.62 0 0 1-.3-1.175c-.09-.4-.139-.774-.145-1.121-.02-.776.206-1.217.675-1.323.34.019.578.086.711.2.146.111.241.27.288.476.044.194.048.451.012.772-.153 1.079-.14 2.019.04 2.819.06.263.14.54.242.829.355.725 1.07.966 2.145.724a4.525 4.525 0 0 0 1.53-.651c.88-.571 1.437-1.136 1.672-1.693a7.474 7.474 0 0 0-.155-1.407c-.09-.4-.188-.75-.291-1.051a20.754 20.754 0 0 0-.332-.989c-.119-.369-.235-.776-.346-1.219.133-.102.268-.169.405-.199.149-.034.314.007.496.122.194.112.388.363.584.751a7.3 7.3 0 0 1 .551 1.408c.159.54.305 1.108.439 1.703.145.592.281 1.168.407 1.728.124.548.254 1.018.39 1.407-.109.157-.226.25-.352.278-.457.103-.898-.278-1.321-1.144-.12.16-.337.371-.65.633-.662.582-1.492 1.058-2.49 1.427-.189.066-.403.127-.643.181-.24.054-.554.077-.94.068-.375-.012-.76-.147-1.155-.407-.395-.259-.706-.705-.933-1.339zm9.067-8.117a235.29 235.29 0 0 1 2.052 7.34c.011.37-.223.609-.703.717a1.282 1.282 0 0 1-.41.02c-.139-.029-.236-.085-.29-.169l-1.729-7.664 1.08-.244zm-2.12-1.973c-.09-.4.099-.653.567-.758.31-.07.576-.058.801.035.063.118.108.24.137.366a.563.563 0 0 1-.06.374c-.066.135-.19.223-.373.264a1.394 1.394 0 0 1-.576.004.969.969 0 0 1-.496-.285zm11.398 6.458c.425-.3.843-.58 1.252-.841.41-.261.815-.436 1.215-.526.412-.093.646-.014.703.238.012.057.016.152.01.286.003.119-.12.297-.366.533a6.532 6.532 0 0 1-.925.695c-.367.239-.776.475-1.227.709a25.55 25.55 0 0 1-1.333.643c-.905.408-1.558.658-1.958.748-.4.09-.845.142-1.334.156-.478.012-.94-.04-1.386-.155-1.035-.272-1.658-.876-1.869-1.813l-.093-.412c-.046-.206-.026-.517.06-.933.084-.427.255-.868.513-1.322.255-.466.575-.911.96-1.334.806-.903 1.712-1.575 2.717-2.018.348-.163.642-.271.882-.325.251-.057.458-.098.62-.122.16-.036.33-.062.506-.078.174-.027.331-.02.473.02.33.08.545.339.643.773.062.275-.072.587-.402.938-.087.092-.164.175-.231.25a2.924 2.924 0 0 0-.374-.618c-.133-.163-.353-.209-.662-.139-1.285.59-2.348 1.28-3.191 2.071-.95.899-1.345 1.708-1.182 2.429.018.08.043.164.075.253.165.732.562 1.189 1.192 1.371.474.133 1.043.125 1.706-.024.675-.153 1.241-.358 1.7-.618.455-.271.89-.549 1.306-.835zm5.409-2.607.422 1.472c.206.915.114 1.518-.277 1.811a.965.965 0 0 1-.314.124c-.126.029-.28.034-.465.015l-1.43-6.417a23.221 23.221 0 0 0-.797-2.739 26.235 26.235 0 0 1-.785-2.76c-.082-.366.071-.593.46-.68l.137-.031a.437.437 0 0 1 .158-.018c.331.67.639 1.502.923 2.495.628 2.2 1.08 3.672 1.356 4.415.171-.147.54-.536 1.106-1.168.566-.633 1.023-1.138 1.37-1.517.345-.39.671-.752.98-1.086.731-.753 1.206-1.154 1.423-1.203.183-.041.35.035.502.229-.41.849-1.149 1.857-2.22 3.023l-1.303 1.411c-.426.457-.807.921-1.145 1.394.812.033 1.587.086 2.324.16.735.063 1.443.113 2.125.152 1.572.102 2.897.061 3.973-.121.07.308.086.515.05.619-.067.184-.258.323-.573.418l-.137.031a45.974 45.974 0 0 0-2.925-.026c-2.38.045-4.027.044-4.938-.003zm8.424-5.612c-.162-.612-.308-1.156-.44-1.63l-.294-1.07c-.055-.24-.276-.796-.665-1.67.072-.16.14-.313.202-.46a.536.536 0 0 1 .386-.285c.4-.09 1.09 1.526 2.067 4.85a102.93 102.93 0 0 1 1.494 5.826c.118.526-.188.871-.92 1.036l-.14.014a65.205 65.205 0 0 0-.566-2.269c-.244-.919-.454-1.718-.631-2.399a99.274 99.274 0 0 0-.493-1.943zm8.853 11.789c-.119.591-.344.924-.676.999a.396.396 0 0 1-.41-.142c-.1-.122-.137-.287-.112-.497.012-1.12.099-2.413.26-3.879.174-1.469.288-2.455.342-2.96-.49-.31-1.3-.968-2.428-1.975-2.317-2.073-3.503-3.229-3.557-3.469-.002-.011 0-.024.01-.038l.504-.799c1.092.631 2.589 1.783 4.492 3.456.479.421.866.778 1.16 1.072.132-.534.228-.988.288-1.362l.136-.914.167-.938c.175-1.037.44-2.364.796-3.982a.812.812 0 0 1 .31-.142c.286-.065.509-.037.668.084.059.047.097.11.115.19.015.069.02.14.012.213l-2.077 15.083zm17.337-13.695c-.553 1.543-1.508 2.635-2.864 3.277a4.636 4.636 0 0 1-.886.308l-.669.151a4.337 4.337 0 0 1-.602.046 2.146 2.146 0 0 1-.65-.088c-.478-.144-.765-.434-.863-.868a3.249 3.249 0 0 1-.224-.67c-.059-.264-.079-.62-.06-1.069.019-.448.122-.952.308-1.51a7.137 7.137 0 0 1 .81-1.607c.706-1.072 1.557-1.853 2.552-2.341.294-.138.566-.236.817-.292.263-.06.502-.096.715-.108.663-.15 1.21.202 1.643 1.053.278.538.544 1.32.799 2.343.263 1.01.47 1.792.619 2.347.158.541.346 1.027.563 1.459l-1.012.228a16.81 16.81 0 0 1-.288-.8 44.84 44.84 0 0 0-.22-.653 12.744 12.744 0 0 0-.487-1.206zm-.667-2.642c-.15-.663-.55-.921-1.202-.774a1.727 1.727 0 0 0-.244.037c-.835.188-1.625.787-2.37 1.796-.352.464-.63.959-.836 1.486-.31.754-.408 1.389-.292 1.903.152.675.631.987 1.437.938 1.024-.255 1.901-.946 2.632-2.071.31-.49.544-1 .7-1.528.225-.711.283-1.307.175-1.787zm8.334-10.565c.248 1.098.456 2.18.625 3.247.177 1.053.351 2.09.52 3.108.179 1.005.396 2.073.651 3.205.252 1.12.601 2.291 1.044 3.513.059.263.051.463-.027.6-.065.135-.212.228-.441.28-.537.121-.906-.264-1.108-1.156l-.127-.566c-1.35 1.578-2.585 2.493-3.706 2.746-.446.1-.927.095-1.445-.016-.506-.114-1.04-.457-1.601-1.027a4.184 4.184 0 0 1-.275-.82 4.344 4.344 0 0 1-.078-1.064c.022-.438.149-.911.383-1.42.245-.512.57-.988.975-1.427.892-.946 1.95-1.557 3.173-1.833a4.858 4.858 0 0 1 1.563-.1 29.93 29.93 0 0 1-.209-1.088 245.89 245.89 0 0 0-.265-1.653 113.226 113.226 0 0 1-.454-2.654 7.155 7.155 0 0 1-.069-.705c.002-.205.027-.385.076-.54.107-.325.372-.534.795-.63zm-4.669 12.694c.203.903.631 1.281 1.283 1.134.102-.023.214-.06.335-.112.469-.105 1.015-.373 1.639-.802 1.187-.808 1.881-1.433 2.082-1.875l-.514-2.28c-.091-.4-.462-.527-1.113-.38a2.46 2.46 0 0 0-.33.056 3.413 3.413 0 0 0-.581.221 4.99 4.99 0 0 0-.856.518c-.31.226-.605.485-.888.777-.592.626-.948 1.283-1.069 1.97-.049.264-.045.521.012.773zm13.496-14.684a50.02 50.02 0 0 1 .624 3.247c.178 1.053.351 2.089.521 3.108a72.34 72.34 0 0 0 .651 3.205c.252 1.12.6 2.29 1.044 3.512.059.263.05.463-.027.6-.065.136-.212.229-.441.28-.537.122-.907-.264-1.108-1.155l-.127-.566c-1.35 1.578-2.585 2.493-3.706 2.746a3.33 3.33 0 0 1-1.445-.017c-.506-.114-1.04-.456-1.601-1.026a4.184 4.184 0 0 1-.275-.821 4.296 4.296 0 0 1-.078-1.064c.022-.437.149-.91.383-1.42a5.8 5.8 0 0 1 .975-1.427c.892-.946 1.95-1.557 3.173-1.832a4.858 4.858 0 0 1 1.563-.1 29.949 29.949 0 0 1-.209-1.089 246.92 246.92 0 0 0-.265-1.652 113.126 113.126 0 0 1-.454-2.654 7.153 7.153 0 0 1-.069-.706c.002-.204.027-.384.076-.54.107-.324.372-.534.795-.63zm-4.669 12.693c.203.903.631 1.281 1.282 1.135a1.99 1.99 0 0 0 .336-.112c.468-.106 1.015-.373 1.639-.802 1.187-.808 1.881-1.433 2.082-1.875l-.515-2.28c-.09-.4-.461-.528-1.112-.38a2.473 2.473 0 0 0-.33.056 3.416 3.416 0 0 0-.581.22 4.99 4.99 0 0 0-.856.518c-.31.226-.606.485-.888.777-.592.626-.948 1.283-1.069 1.971-.049.263-.045.52.012.772zm23.351-2.689c-.06.218-.306.376-.741.474-.423.095-.669-.011-.739-.32-.304-1.35-.541-2.269-.712-2.759-.353-1.085-.704-1.63-1.053-1.636-.86.025-1.552.098-2.078.216-.514.116-.907.373-1.178.77-.262.384-.402.962-.42 1.735-.009.758.095 1.804.312 3.137l-1.321.298a54.023 54.023 0 0 0-.375-1.826 74.36 74.36 0 0 0-.483-1.981c-.198-.772-.418-1.612-.658-2.519a50.45 50.45 0 0 1-.685-2.638c-.165-.732-.27-1.41-.316-2.037.066-.243.207-.39.424-.438a.751.751 0 0 1 .683.152c.19.15.308.297.352.443l.553 2.849c.239 1.063.47 1.846.692 2.349.874-.918 1.86-1.501 2.957-1.748a8.22 8.22 0 0 1 1.151-.17c.958.253 1.625.6 2.001 1.044.186.235.329.497.43.786.101.29.2.622.297.997.362 1.287.664 2.228.907 2.822zm3.74-1.852c1.006-.227 2.418-1.026 4.235-2.397a.4.4 0 0 1 .339.068c.098.062.16.15.186.264-.282.88-1.02 1.684-2.214 2.41-1.193.725-2.383 1.072-3.567 1.038-1.344-.045-2.277-.585-2.799-1.62a8.829 8.829 0 0 1-.231-.868c-.083-.365-.1-.866-.051-1.502.058-.65.255-1.295.591-1.935a5.208 5.208 0 0 1 1.326-1.633 4.46 4.46 0 0 1 1.867-.907c.663-.15 1.458-.089 2.384.183.438.13.802.306 1.092.529.291.222.468.477.533.763.018.08.03.16.037.243.134.703-.104 1.219-.714 1.549-.268.144-.59.26-.968.344l-2.492.454c-.823.186-1.412.505-1.766.957-.208.251-.32.583-.335.994.521.976 1.37 1.331 2.547 1.066zm1.857-5.987a2.613 2.613 0 0 0-.877-.216 2.606 2.606 0 0 0-.713.034c-.183.041-.466.171-.849.39a7.373 7.373 0 0 0-1.009.642c-.706.543-1.014 1.015-.924 1.415.933-.126 1.627-.24 2.085-.344 1.269-.286 2.102-.588 2.498-.905.249-.177.354-.35.315-.522-.046-.206-.221-.37-.526-.494zm11.248-2.284c-.558-.235-1.214-.267-1.968-.097-.709.16-1.337.44-1.883.84-1.035.737-1.679 1.531-1.932 2.381a2.37 2.37 0 0 0-.027 1.16l.132.582c.069.309.222.719.457 1.23.233.5.412 1.025.535 1.574a2.482 2.482 0 0 0-.563.217c-.139.08-.259.13-.362.154a.365.365 0 0 1-.305-.076c-.09-.076-.21-.235-.36-.477a14.666 14.666 0 0 1-.2-.568c-.107-.312-.24-.69-.4-1.135a60.467 60.467 0 0 0-.508-1.453c-.181-.536-.36-1.06-.535-1.573a181.513 181.513 0 0 0-.86-2.455c-.062-.275.107-.457.507-.547a.663.663 0 0 1 .636.181c.181.163.341.368.48.612.137.234.245.474.325.72.091.244.159.415.205.512 1.205-1.689 2.928-2.786 5.168-3.291.252-.057.516-.11.793-.161.066-.027.15-.052.253-.075.103-.023.221.022.355.136a.934.934 0 0 1 .32.54c.129.572.041.928-.263 1.069zm5.732 4.023c1.006-.227 2.418-1.025 4.235-2.396a.4.4 0 0 1 .339.067c.098.062.16.15.186.265-.282.88-1.02 1.683-2.214 2.409-1.193.726-2.383 1.072-3.568 1.039-1.343-.046-2.276-.586-2.798-1.622a8.829 8.829 0 0 1-.231-.866c-.083-.366-.1-.867-.051-1.503.058-.65.255-1.294.591-1.935a5.21 5.21 0 0 1 1.326-1.632 4.455 4.455 0 0 1 1.867-.908c.663-.15 1.458-.088 2.384.183.438.13.802.306 1.092.529.291.223.468.477.533.763.018.08.03.161.037.244.134.702-.104 1.218-.714 1.548-.268.145-.59.26-.968.344l-2.492.454c-.823.186-1.412.505-1.766.957-.208.251-.32.583-.335.995.521.976 1.369 1.33 2.547 1.065zm1.857-5.987a2.613 2.613 0 0 0-.877-.216 2.606 2.606 0 0 0-.713.034c-.183.042-.466.172-.849.39a7.363 7.363 0 0 0-1.009.642c-.706.544-1.014 1.016-.924 1.416.932-.126 1.627-.241 2.085-.344 1.269-.286 2.101-.588 2.498-.906.249-.176.354-.35.315-.522-.046-.205-.221-.37-.526-.494z" fill="#AFAFAF"/>
    <defs>
        <clipPath id="8of1mmqj6a">
            <path fill="#fff" transform="scale(-1 1) rotate(-78.543 -34.169 116.452)" d="M0 0h61.05v132.018H0z"/>
        </clipPath>
    </defs>
</svg>
