<svg width="40" height="40" viewBox="0 0 40 40" fill="none" xmlns="http://www.w3.org/2000/svg">
    <g clip-path="url(#4d0wm2fm6a)">
        <path d="M40 20c0 4.735-1.646 9.087-4.397 12.512C31.938 37.078 26.31 37.29 20 37.29c-6.281 0-11.886-.185-15.553-4.714A19.916 19.916 0 0 1 0 20C0 8.954 8.954 0 20 0s20 8.954 20 20z" fill="#535353"/>
        <path d="m26.25 12.184 1.255-.537a.781.781 0 0 1 1.089.718v7.44h-4.688v-6.101c0-.313.187-.596.474-.719l1.87-.8zM28.594 4.688v2.065a.781.781 0 0 1-.474.718l-1.87.8-1.255.538a.781.781 0 0 1-1.089-.718V5.47a.781.781 0 0 0-.781-.782h-6.25a.781.781 0 0 0-.781.782v14.336h-4.688V4.688A4.688 4.688 0 0 1 16.094 0h7.812a4.688 4.688 0 0 1 4.688 4.688z" fill="#FFDA8D"/>
        <path d="M26.25 4.688v3.584l-1.255.537a.781.781 0 0 1-1.089-.718V5.47a.781.781 0 0 0-.781-.782h-6.25a.781.781 0 0 0-.781.782v14.336H13.75V4.688a2.344 2.344 0 0 1 2.344-2.344h7.812a2.344 2.344 0 0 1 2.344 2.344zM24.38 12.985l1.87-.8v7.62h-2.344v-6.101c0-.313.187-.596.474-.719z" fill="#F6B33C"/>
        <path d="M35.625 20.037v12.448C31.96 37.065 26.323 40 20 40c-2.772 0-5.412-.564-7.813-1.584a20.054 20.054 0 0 1-7.812-5.93V20.036a3.906 3.906 0 0 1 3.906-3.906H31.72a3.906 3.906 0 0 1 3.906 3.906z" fill="#DCDCDC"/>
        <path d="M7.5 20.037a3.906 3.906 0 0 1 3.906-3.906H8.281a3.906 3.906 0 0 0-3.906 3.906v12.448A20.108 20.108 0 0 0 7.5 35.612V20.037z" fill="#BEBEBE"/>
        <path d="M30.938 19.256H9.063c-.863 0-1.563.7-1.563 1.562v14.794A19.914 19.914 0 0 0 20 40c4.73 0 9.076-1.643 12.5-4.388V20.818c0-.863-.7-1.562-1.563-1.562z" fill="#BEBEBE"/>
        <path d="M10.625 20.818c0-.863.7-1.562 1.563-1.562H9.062c-.862 0-1.562.7-1.562 1.562v14.794a20.038 20.038 0 0 0 3.125 2.057V20.82zM22.949 27.439a2.949 2.949 0 0 0-3.09-2.946 2.97 2.97 0 0 0-2.803 2.785 2.944 2.944 0 0 0 1.47 2.712v3.301a1.475 1.475 0 0 0 2.949 0v-3.3a2.945 2.945 0 0 0 1.474-2.552z" fill="gray"/>
    </g>
    <defs>
        <clipPath id="4d0wm2fm6a">
            <path fill="#fff" d="M0 0h40v40H0z"/>
        </clipPath>
    </defs>
</svg>
