<svg width="40" height="40" viewBox="0 0 40 40" fill="none" xmlns="http://www.w3.org/2000/svg">
    <g clip-path="url(#h3pgmvmh9a)">
        <path d="M2.483 11.723C5.701 5.27 12.38.845 20.087.878c10.809.048 19.574 8.94 19.473 19.749a19.466 19.466 0 0 1-3.314 10.71c-.685 1.018-2.274.535-2.274-.693a5.38 5.38 0 0 0-5.38-5.38h-.05c0-6.492-5.263-11.755-11.755-11.755H3.598c-.917 0-1.524-.965-1.115-1.786z" fill="#00A3FF"/>
        <path d="M26.823 11.382c0 .809-.169 1.587-.48 2.314a2.66 2.66 0 0 1-2.436 1.615h-.016c-3.269 0-6.155-1.26-7.883-3.186-1.728 1.925-4.615 3.186-7.884 3.186H8.11a2.66 2.66 0 0 1-2.436-1.615 5.846 5.846 0 0 1-.48-2.314c0-.808.168-1.586.48-2.314a2.67 2.67 0 0 1 1.051-1.22 2.663 2.663 0 0 1-.392-2.654 5.847 5.847 0 0 1 1.296-1.977 5.845 5.845 0 0 1 1.976-1.296 2.665 2.665 0 0 1 2.416.222A2.668 2.668 0 0 1 13.518.48 5.847 5.847 0 0 1 15.832 0c.808 0 1.586.169 2.314.48.678.292 1.194.844 1.445 1.51a2.668 2.668 0 0 1 2.14-.069 5.847 5.847 0 0 1 1.976 1.296 5.845 5.845 0 0 1 1.297 1.977c.32.802.23 1.7-.22 2.411.689.244 1.26.768 1.558 1.463.312.728.481 1.506.481 2.314z" fill="#F19B0B"/>
        <path d="M6.923 8.069c1.463 1.462 3.174 2.46 4.889 2.96.157.046.15.27-.01.307-2.294.55-4.251 1.687-5.576 3.184-.23-.234-.419-.511-.553-.823a5.846 5.846 0 0 1-.48-2.315c0-.808.168-1.586.48-2.314a2.67 2.67 0 0 1 1.051-1.22c.059.073.121.143.188.21l.011.01zm8.945-1.5c.037.152.247.164.303.018.553-1.436 1.454-2.844 2.685-4.074l.011-.012c.215-.213.46-.385.724-.511A2.669 2.669 0 0 0 18.146.481 5.845 5.845 0 0 0 15.832 0c-.808 0-1.586.169-2.314.48-.312.135-.59.324-.823.554 1.487 1.316 2.62 3.259 3.173 5.535zm1.241 3.827-.012.012c-.41.41-.922.676-1.467.788l.015.084c2.79.516 6.17-.614 8.768-3.211l.01-.011a2.66 2.66 0 0 0 .581-2.864 5.848 5.848 0 0 0-1.296-1.977 5.846 5.846 0 0 0-1.977-1.296 2.668 2.668 0 0 0-.973-.19c.174 2.854-1.09 6.106-3.649 8.665zm9.233-1.328a2.67 2.67 0 0 0-.553-.823c-1.895 2.142-5.088 3.548-8.708 3.548h-.017c-.579-.001-1.13-.175-1.594-.48l-.049.07c1.608 2.336 4.797 3.928 8.47 3.928h.016a2.66 2.66 0 0 0 2.435-1.615c.312-.727.481-1.505.481-2.314 0-.808-.169-1.586-.48-2.314zM11.903 2.916c0-.266.041-.526.117-.773a2.665 2.665 0 0 0-2.415-.222 5.847 5.847 0 0 0-1.977 1.296 5.845 5.845 0 0 0-1.296 1.977 2.668 2.668 0 0 0-.191.973c2.133-.13 4.488.543 6.61 1.959.135.09.302-.054.232-.201-.685-1.454-1.08-3.164-1.08-4.993v-.016z" fill="#F5C02C"/>
        <path d="M17.479 15.17h-3.593a2.794 2.794 0 0 1 0-5.59h3.593a2.794 2.794 0 1 1 0 5.59z" fill="#F5C02C"/>
        <path d="M18.084 15.17h-1.078a2.794 2.794 0 0 1 0-5.59h1.078a2.794 2.794 0 1 1 0 5.59z" fill="#F3D373"/>
        <path d="M4.717 29.547c.037.985-1.273 1.36-1.758.503a19.464 19.464 0 0 1-2.517-9.288l-.003-.003v-7.186a2.395 2.395 0 0 1 2.395-2.395H7.1a2.395 2.395 0 0 0-2.395 2.395l.003 7.189c.004.267-.003 8.371-.003 8.371 0 .002.002.003.003.004.002.137.005.274.01.41z" fill="#9765E8"/>
        <path d="M31.577 13.573v14.886c0 6.337-5.11 11.5-11.447 11.54H20c-7.461 0-13.947-4.177-17.246-10.32V13.573a2.395 2.395 0 0 1 2.396-2.395h6.263l.523.332h7.97l.706-.332h8.57a2.395 2.395 0 0 1 2.395 2.395z" fill="#CE9CFF"/>
        <path d="M11.936 13.972a1.497 1.497 0 1 1-2.994 0 1.497 1.497 0 0 1 2.994 0zm-4.99 12.552a1.497 1.497 0 1 0 0 2.994 1.497 1.497 0 0 0 0-2.994zm0-9.212a1.497 1.497 0 1 0 0 2.994 1.497 1.497 0 0 0 0-2.994zM3.543 31.018c.418.648.873 1.27 1.361 1.862a1.5 1.5 0 0 0-1.36-1.862zm-.09-18.543a1.497 1.497 0 1 0 0 2.994 1.497 1.497 0 0 0 0-2.994zm0 9.328a1.497 1.497 0 1 0 0 2.994 1.497 1.497 0 0 0 0-2.994zm17.465-4.491a1.497 1.497 0 1 0 0 2.994 1.497 1.497 0 0 0 0-2.994zm6.986 0a1.497 1.497 0 1 0 0 2.994 1.497 1.497 0 0 0 0-2.994zm-3.493-4.837a1.497 1.497 0 1 0 0 2.994 1.497 1.497 0 0 0 0-2.994zm0 9.328a1.497 1.497 0 1 0 0 2.994 1.497 1.497 0 0 0 0-2.994zm-6.986-9.328a1.497 1.497 0 1 0 0 2.994 1.497 1.497 0 0 0 0-2.994zm-3.493 4.837a1.497 1.497 0 1 0 0 2.994 1.497 1.497 0 0 0 0-2.994z" fill="#5800C7"/>
        <path d="M2.983 12.55c-.146.31-.229.657-.229 1.023v1.723a1.497 1.497 0 0 1 .23-2.746zM1.956 23.3c0 .574.324 1.073.798 1.324v-2.649c-.474.251-.798.75-.798 1.324zm1.587 7.717z" fill="#00429A"/>
        <path d="M36.287 24.75v6.526C32.781 36.536 26.795 40 20 40c-1.256 0-2.483-.118-3.673-.344V24.75c0-.882.715-1.597 1.597-1.597H34.69c.882 0 1.597.715 1.597 1.596z" fill="#F5C02C"/>
        <path d="m19.437 23.154-3.11 3.11V24.75c0-.881.715-1.596 1.597-1.596h1.513zm8.714 0L16.327 34.977v2.877l14.7-14.7h-2.876zm-5.795 0-6.029 6.028v2.877l8.906-8.905h-2.877zm12.334 0h-.744l-16.66 16.66c.88.121 1.778.185 2.69.186l16.08-16.079a1.596 1.596 0 0 0-1.366-.767zM23.147 39.748a19.422 19.422 0 0 0 3.954-1.077l9.186-9.186v-2.877l-13.14 13.14z" fill="#FDED32"/>
        <path d="m22.534 22.92-6.17-6.17a.977.977 0 0 0-1.383 0l-6.17 6.17c-.3.3-.468.705-.468 1.129v14.354c0 .882.715 1.597 1.597 1.597h11.465c.882 0 1.596-.715 1.596-1.597V24.05c0-.424-.168-.83-.467-1.13zm-6.862-2.3a1.141 1.141 0 1 1 0-2.283 1.141 1.141 0 0 1 0 2.283z" fill="#FD4343"/>
        <path d="M12.573 40H9.94a1.597 1.597 0 0 1-1.597-1.597V24.05c0-.424.168-.83.468-1.13l2.166-2.165v17.65c0 .881.715 1.596 1.596 1.596z" fill="#F52C2C"/>
        <path d="M13.608 36.106a.599.599 0 0 1-.552-.83l4.393-10.469a.6.6 0 0 1 1.104.464L14.16 35.739a.6.6 0 0 1-.552.367zm1.699-9.3c0-1.573-1.14-2.854-2.54-2.854-1.4 0-2.54 1.28-2.54 2.855 0 1.574 1.14 2.854 2.54 2.854 1.4 0 2.54-1.28 2.54-2.854zm-1.198 0c0 .914-.602 1.658-1.342 1.658-.74 0-1.342-.744-1.342-1.657 0-.914.602-1.657 1.342-1.657.74 0 1.342.743 1.342 1.657zm7.131 7.158c0-1.574-1.14-2.855-2.54-2.855-1.4 0-2.54 1.28-2.54 2.855 0 1.574 1.14 2.854 2.54 2.854 1.4 0 2.54-1.28 2.54-2.854zm-1.197 0c0 .913-.603 1.657-1.343 1.657s-1.342-.744-1.342-1.657c0-.914.602-1.657 1.342-1.657.74 0 1.343.743 1.343 1.657zM16.27 19.36v-8.183h-1.197v8.183a.599.599 0 0 0 1.197 0z" fill="#FDF7BD"/>
        <path d="m16.343 11.178-5.192 9.884a.4.4 0 0 1-.643.089l-3.236-3.422a.4.4 0 0 1-.038-.502l4.179-6.05h4.93z" fill="#F5C02C"/>
        <path d="m20.612 11.178 4.17 6.05a.4.4 0 0 1-.038.5l-3.236 3.423a.4.4 0 0 1-.643-.09l-5.183-9.883h4.93z" fill="#F1CA50"/>
        <path d="M37.485 18.892v1.2a.16.16 0 0 1-.168.16 3.798 3.798 0 0 1-3.621-3.621.16.16 0 0 1 .16-.168h1.2c.083 0 .153.065.158.149a2.274 2.274 0 0 0 2.123 2.122.159.159 0 0 1 .148.158z" fill="#5800C7"/>
        <path d="M33.689 5.158a3.798 3.798 0 0 1-3.621 3.62.16.16 0 0 1-.168-.16V7.42a.16.16 0 0 1 .149-.158 2.269 2.269 0 0 0 1.46-.663c.378-.379.625-.891.662-1.459a.16.16 0 0 1 .158-.15h1.2a.16.16 0 0 1 .16.169z" fill="#FD4343"/>
        <path d="M29.776 14.411a2.998 2.998 0 0 1-3.986 0 .16.16 0 0 1-.008-.233l.623-.623a.16.16 0 0 1 .216-.008 1.794 1.794 0 0 0 2.324 0 .16.16 0 0 1 .216.008l.622.623a.16.16 0 0 1-.007.233z" fill="#FD3D96"/>
    </g>
    <defs>
        <clipPath id="h3pgmvmh9a">
            <path fill="#fff" d="M0 0h40v40H0z"/>
        </clipPath>
    </defs>
</svg>
