<svg width="20" height="20" viewBox="0 0 20 20" fill="none" xmlns="http://www.w3.org/2000/svg">
    <path fill-rule="evenodd" clip-rule="evenodd" d="M10.138 4.178a2.496 2.496 0 0 0 0 1.644.84.84 0 0 1-.138.011H3.333a.833.833 0 0 1 0-1.666H10a.84.84 0 0 1 .138.011zM15 5c0 .288-.049.565-.138.822a.84.84 0 0 0 .138.011h1.667a.833.833 0 0 0 0-1.666H15a.84.84 0 0 0-.138.011c.09.258.138.534.138.822zm-9.862 5.822a.84.84 0 0 1-.138.011H3.333a.833.833 0 0 1 0-1.666H5a.84.84 0 0 1 .138.011 2.497 2.497 0 0 0 0 1.644zM10 10c0 .288-.049.565-.138.822a.84.84 0 0 0 .138.011h6.667a.833.833 0 0 0 0-1.666H10a.839.839 0 0 0-.138.011c.09.258.138.534.138.822zm4.862 5.822a2.496 2.496 0 0 0 0-1.644.84.84 0 0 1 .138-.011h1.667a.833.833 0 0 1 0 1.666H15a.84.84 0 0 1-.138-.011zm-4.724-1.644a2.495 2.495 0 0 0 0 1.644.84.84 0 0 1-.138.011H3.333a.833.833 0 0 1 0-1.666H10a.84.84 0 0 1 .138.011z" fill="#475569" fill-opacity=".4"/>
    <path fill-rule="evenodd" clip-rule="evenodd" d="M12.5 5.833a.833.833 0 1 0 0-1.666.833.833 0 0 0 0 1.666zm0 1.667a2.5 2.5 0 1 0 0-5 2.5 2.5 0 0 0 0 5zm-5 3.333a.833.833 0 1 0 0-1.666.833.833 0 0 0 0 1.666zm0 1.667a2.5 2.5 0 1 0 0-5 2.5 2.5 0 0 0 0 5zm5.833 2.5a.833.833 0 1 1-1.666 0 .833.833 0 0 1 1.666 0zM15 15a2.5 2.5 0 1 1-5 0 2.5 2.5 0 0 1 5 0z" fill="#475569"/>
</svg>
